<svg xmlns="http://www.w3.org/2000/svg" viewBox="0 0 900 520" font-family="Inter, system-ui, sans-serif">
  <defs>
    <marker id="arrow-blue" viewBox="0 0 10 10" refX="9" refY="5" markerWidth="6" markerHeight="6" orient="auto-start-reverse">
      <path d="M0,0 L10,5 L0,10 z" fill="#1864ab"/>
    </marker>
    <marker id="arrow-cyan" viewBox="0 0 10 10" refX="9" refY="5" markerWidth="6" markerHeight="6" orient="auto-start-reverse">
      <path d="M0,0 L10,5 L0,10 z" fill="#0b7285"/>
    </marker>
    <marker id="arrow-green" viewBox="0 0 10 10" refX="9" refY="5" markerWidth="6" markerHeight="6" orient="auto-start-reverse">
      <path d="M0,0 L10,5 L0,10 z" fill="#2f9e44"/>
    </marker>
  </defs>

  <text x="450" y="34" text-anchor="middle" font-size="20" font-weight="700" fill="#0A1628">@manu_ai.to — AI Content Pipeline</text>

  <!-- Inputs column -->
  <rect x="30" y="90" width="210" height="110" rx="14" fill="#e8f0fe" stroke="#1a2a4a" stroke-width="2"/>
  <text x="135" y="125" text-anchor="middle" font-size="15" font-weight="700" fill="#1a2a4a">Style Guide</text>
  <text x="135" y="150" text-anchor="middle" font-size="12" fill="#343a40">Scraped from 20</text>
  <text x="135" y="168" text-anchor="middle" font-size="12" fill="#343a40">top IG posts</text>
  <text x="135" y="188" text-anchor="middle" font-size="11" fill="#8DA2C0" font-style="italic">Voice reference</text>

  <rect x="30" y="220" width="210" height="110" rx="14" fill="#e8f0fe" stroke="#1a2a4a" stroke-width="2"/>
  <text x="135" y="255" text-anchor="middle" font-size="15" font-weight="700" fill="#1a2a4a">Audience Persona</text>
  <text x="135" y="280" text-anchor="middle" font-size="12" fill="#343a40">French AI /</text>
  <text x="135" y="298" text-anchor="middle" font-size="12" fill="#343a40">automation founders</text>

  <rect x="30" y="350" width="210" height="110" rx="14" fill="#e8f0fe" stroke="#1a2a4a" stroke-width="2"/>
  <text x="135" y="385" text-anchor="middle" font-size="15" font-weight="700" fill="#1a2a4a">Idea / Topic</text>
  <text x="135" y="410" text-anchor="middle" font-size="12" fill="#343a40">Manu's prompt</text>
  <text x="135" y="428" text-anchor="middle" font-size="11" fill="#8DA2C0" font-style="italic">CLI call</text>

  <!-- Arrows to skill -->
  <line x1="245" y1="145" x2="335" y2="230" stroke="#1864ab" stroke-width="2.5" marker-end="url(#arrow-blue)"/>
  <line x1="245" y1="275" x2="335" y2="270" stroke="#1864ab" stroke-width="2.5" marker-end="url(#arrow-blue)"/>
  <line x1="245" y1="405" x2="335" y2="310" stroke="#1864ab" stroke-width="2.5" marker-end="url(#arrow-blue)"/>

  <!-- content-creator skill -->
  <rect x="340" y="210" width="220" height="140" rx="14" fill="#74c0fc" stroke="#1971c2" stroke-width="2.5"/>
  <text x="450" y="245" text-anchor="middle" font-size="16" font-weight="700" fill="#0A1628">content-creator skill</text>
  <text x="450" y="270" text-anchor="middle" font-size="12" fill="#0A1628">Claude Code + skill .md</text>
  <text x="450" y="295" text-anchor="middle" font-size="12" fill="#0A1628">Hook patterns</text>
  <text x="450" y="313" text-anchor="middle" font-size="12" fill="#0A1628">Close patterns</text>
  <text x="450" y="335" text-anchor="middle" font-size="11" fill="#343a40" font-style="italic">555 method for carousels</text>

  <!-- Claude API -->
  <rect x="340" y="90" width="220" height="90" rx="14" fill="#e3fafc" stroke="#0b7285" stroke-width="2"/>
  <text x="450" y="125" text-anchor="middle" font-size="16" font-weight="700" fill="#0b7285">Anthropic API</text>
  <text x="450" y="150" text-anchor="middle" font-size="12" fill="#343a40">Claude Sonnet 4.6</text>
  <text x="450" y="168" text-anchor="middle" font-size="12" fill="#343a40">Generation engine</text>

  <!-- Arrow skill <-> Claude -->
  <line x1="450" y1="210" x2="450" y2="180" stroke="#0b7285" stroke-width="2.5" marker-end="url(#arrow-cyan)"/>

  <!-- Outputs -->
  <line x1="565" y1="260" x2="640" y2="150" stroke="#2f9e44" stroke-width="2.5" marker-end="url(#arrow-green)"/>
  <line x1="565" y1="280" x2="640" y2="280" stroke="#2f9e44" stroke-width="2.5" marker-end="url(#arrow-green)"/>
  <line x1="565" y1="300" x2="640" y2="410" stroke="#2f9e44" stroke-width="2.5" marker-end="url(#arrow-green)"/>

  <rect x="645" y="110" width="220" height="80" rx="14" fill="#d3f9d8" stroke="#2f9e44" stroke-width="2.5"/>
  <text x="755" y="145" text-anchor="middle" font-size="15" font-weight="700" fill="#2f9e44">Video Script</text>
  <text x="755" y="170" text-anchor="middle" font-size="12" fill="#343a40">Hook + body + close + director notes</text>

  <rect x="645" y="240" width="220" height="80" rx="14" fill="#d3f9d8" stroke="#2f9e44" stroke-width="2.5"/>
  <text x="755" y="275" text-anchor="middle" font-size="15" font-weight="700" fill="#2f9e44">Carousel</text>
  <text x="755" y="300" text-anchor="middle" font-size="12" fill="#343a40">555 method · max 5 words / line</text>

  <rect x="645" y="370" width="220" height="80" rx="14" fill="#d3f9d8" stroke="#2f9e44" stroke-width="2.5"/>
  <text x="755" y="405" text-anchor="middle" font-size="15" font-weight="700" fill="#2f9e44">Caption</text>
  <text x="755" y="430" text-anchor="middle" font-size="12" fill="#343a40">1-2 sentences + functional emoji</text>

  <text x="450" y="495" text-anchor="middle" font-size="12" fill="#8DA2C0" font-style="italic">Voice-matched output in ~10 minutes per asset</text>
</svg>
