<?xml version="1.0" encoding="UTF-8"?>
<svg xmlns="http://www.w3.org/2000/svg" viewBox="0 0 64 64">
  <defs>
    <linearGradient id="g" x1="0" y1="0" x2="1" y2="1">
      <stop offset="0%" stop-color="#00A6FF"/>
      <stop offset="100%" stop-color="#00E5FF"/>
    </linearGradient>
    <radialGradient id="glow" cx="50%" cy="50%" r="50%">
      <stop offset="0%" stop-color="#00A6FF" stop-opacity="0.6"/>
      <stop offset="100%" stop-color="#00A6FF" stop-opacity="0"/>
    </radialGradient>
  </defs>
  <rect width="64" height="64" rx="12" fill="#0A1628"/>
  <circle cx="32" cy="32" r="28" fill="url(#glow)"/>
  <!-- Gear -->
  <g fill="url(#g)">
    <circle cx="32" cy="32" r="14"/>
  </g>
  <circle cx="32" cy="32" r="6" fill="#0A1628"/>
  <!-- Gear teeth -->
  <g fill="url(#g)">
    <rect x="30" y="6" width="4" height="8" rx="1"/>
    <rect x="30" y="50" width="4" height="8" rx="1"/>
    <rect x="6" y="30" width="8" height="4" rx="1"/>
    <rect x="50" y="30" width="8" height="4" rx="1"/>
    <rect x="11" y="11" width="4" height="8" rx="1" transform="rotate(-45 13 15)"/>
    <rect x="49" y="11" width="4" height="8" rx="1" transform="rotate(45 51 15)"/>
    <rect x="11" y="45" width="4" height="8" rx="1" transform="rotate(45 13 49)"/>
    <rect x="49" y="45" width="4" height="8" rx="1" transform="rotate(-45 51 49)"/>
  </g>
</svg>
